<svg id="Grupo_18" data-name="Grupo 18" xmlns="http://www.w3.org/2000/svg" xmlns:xlink="http://www.w3.org/1999/xlink" width="184.463" height="184.279" viewBox="0 0 184.463 184.279">
  <defs>
    <clipPath id="clip-path">
      <rect id="Rectángulo_303" data-name="Rectángulo 303" width="184.463" height="184.279" fill="none"/>
    </clipPath>
  </defs>
  <g id="Grupo_17" data-name="Grupo 17" clip-path="url(#clip-path)">
    <path id="Trazado_21" data-name="Trazado 21" d="M131.966,47.845c0-8.6.044-17.2-.029-25.8a4.386,4.386,0,0,1,3.042-4.605c14.1-5.583,28.2-11.154,42.265-16.816a6.853,6.853,0,0,1,5.513-.089c14.147,5.685,28.322,11.3,42.486,16.939a4.313,4.313,0,0,1,3,4.4q-.052,26.049,0,52.1a4.322,4.322,0,0,1-2.987,4.413c-14.392,5.748-28.776,11.519-43.209,17.164a6.049,6.049,0,0,1-4.037-.035C163.66,89.9,149.365,84.146,135.046,78.452a4.383,4.383,0,0,1-3.106-4.558c.067-8.682.027-17.366.027-26.049m8.2-20.381A8.331,8.331,0,0,0,140,28.492c-.008,13.862.021,27.723-.055,41.584-.008,1.565.811,1.95,1.945,2.4q16.029,6.377,32.044,12.787c.641.256,1.319.418,2.142.674V46.581c0-4.776,0-4.783-4.34-6.518-10.435-4.17-20.874-8.331-31.571-12.6m80.019.209a9.326,9.326,0,0,0-1.393.3c-11.061,4.414-22.1,8.883-33.192,13.217-1.64.641-1.507,1.7-1.506,2.946q.009,19.775.009,39.55c0,.714.07,1.427.112,2.218a6.175,6.175,0,0,0,.869-.187c11.214-4.476,22.412-8.988,33.649-13.4,1.461-.575,1.464-1.526,1.462-2.732q-.027-14.643-.01-29.287V27.673m-73.4-6.21c7.806,3.128,14.992,6.026,22.192,8.886,3.712,1.474,7.454,4,11.179,4s7.465-2.55,11.178-4.033c7.161-2.859,14.307-5.752,21.8-8.77-.7-.369-1.03-.587-1.393-.733-10.057-4.031-20.105-8.084-30.194-12.033a4.721,4.721,0,0,0-3.051.055c-3.371,1.213-6.673,2.617-10,3.948l-21.712,8.68" transform="translate(-43.778 0)" fill="#fff"/>
    <path id="Trazado_22" data-name="Trazado 22" d="M0,180.074a48.064,48.064,0,0,1,48.5-48.261c26.217.052,47.723,21.849,47.7,48.35-.019,25.905-22.17,47.951-48.08,47.853-26.484-.1-48.166-21.7-48.121-47.941M48.2,220c21.5.035,39.88-18.214,39.979-39.691.1-22.207-17.875-40.472-39.838-40.474A39.962,39.962,0,0,0,8.082,180.084c-.049,21.921,18,39.878,40.121,39.914" transform="translate(0 -43.737)" fill="#fff"/>
    <path id="Trazado_23" data-name="Trazado 23" d="M80.244,65.8h-32.2c-4.17,0-6-1.2-6.038-3.948-.042-2.774,1.84-4.071,5.918-4.072q14.66,0,29.322,0h3.087c-2.037-2.065-3.689-3.746-5.348-5.421-1-1.009-2.015-2-3.011-3.015-2.231-2.269-2.513-4.57-.791-6.357,1.8-1.871,4.131-1.61,6.538.758,1.608,1.582,3.188,3.192,4.79,4.781q5.07,5.029,10.146,10.054c2.084,2.077,2.127,4.3.078,6.346q-7.62,7.618-15.286,15.193a8.6,8.6,0,0,1-.735.68,3.953,3.953,0,0,1-5.452-.123,3.892,3.892,0,0,1-.046-5.622c2.28-2.44,4.7-4.746,7.056-7.119.561-.566,1.086-1.169,1.978-2.134" transform="translate(-13.936 -13.853)" fill="#d62e83"/>
    <path id="Trazado_24" data-name="Trazado 24" d="M170.349,189.81H194.1c2.922,0,5.844-.011,8.765,0,3.32.015,5.229,1.534,5.174,4.087-.053,2.47-1.9,3.923-5.079,3.926q-15.151.017-30.3,0h-2.384l-.4.682c2.877,2.735,5.807,5.415,8.61,8.223,1.905,1.909,1.974,4.1.43,5.807a3.882,3.882,0,0,1-5.8.1q-8.16-7.952-16.16-16.066a3.947,3.947,0,0,1,.092-5.619q7.862-7.9,15.813-15.707c1.964-1.925,4.334-1.944,5.983-.217,1.593,1.668,1.57,3.9-.285,5.807-2.782,2.859-5.681,5.6-8.531,8.4l.327.576" transform="translate(-51.702 -57.658)" fill="#d62e83"/>
    <path id="Trazado_25" data-name="Trazado 25" d="M72.384,192.877c-5.841,0-11.422.009-17,0-5.935-.013-9.35-3.36-9.429-9.256-.035-2.587-.048-5.176,0-7.763.112-5.6,3.557-8.98,9.152-9.043,1.316-.015,2.632,0,4.1,0,.41-3.324-1-7.65,4.228-7.962,2.842-.169,3.669,1.594,4.01,7.971,1.594,0,3.22-.05,4.842.01a8.354,8.354,0,0,1,8.219,7.307c.31,2.639-.8,4.491-3.014,5.033-2.125.52-3.9-.7-4.784-3.284-.106-.308-.26-.6-.408-.936H54.155v9.907c5.771,0,11.351-.011,16.931,0,6.132.015,9.47,3.286,9.55,9.365.033,2.5.041,5.009,0,7.512-.1,5.823-3.455,9.146-9.222,9.186-1.242.009-2.483,0-3.887,0-.558,3.251.908,8.082-4.458,7.878-4.808-.182-3.475-4.56-3.866-7.885-1.683,0-3.326.052-4.965-.01a8.418,8.418,0,0,1-8.171-7.394,4.158,4.158,0,0,1,2.9-4.887c2.069-.6,3.9.529,4.9,2.8.263.6,1,1.4,1.539,1.408,5.578.1,11.159.063,16.977.063Z" transform="translate(-15.237 -52.703)" fill="#fff"/>
  </g>
</svg>
