<svg id="Grupo_22" data-name="Grupo 22" xmlns="http://www.w3.org/2000/svg" xmlns:xlink="http://www.w3.org/1999/xlink" width="154" height="154" viewBox="0 0 154 154">
  <defs>
    <clipPath id="clip-path">
      <rect id="Rectángulo_307" data-name="Rectángulo 307" width="154" height="154" transform="translate(0 0)" fill="none"/>
    </clipPath>
  </defs>
  <g id="Grupo_21" data-name="Grupo 21" transform="translate(0 0)" clip-path="url(#clip-path)">
    <path id="Trazado_26" data-name="Trazado 26" d="M119.109,154H11.73c-.379-.111-.755-.233-1.137-.33a13.5,13.5,0,0,1-9.947-9.1c-.263-.749-.433-1.53-.646-2.3V73.391a1.548,1.548,0,0,0,.217-.381c1.675-7.2,6.7-11.226,14.055-11.247,3.707-.01,7.414-.038,11.12.02a3.48,3.48,0,0,0,2.765-1.11Q55.061,33.7,82,6.755C84.994,3.743,88.006.9,92.34,0h3.91c4.2.768,7.2,3.366,10.112,6.3q20.531,20.7,41.227,41.23c2.965,2.942,5.629,5.962,6.411,10.221v3.609c-.731,4.27-3.339,7.329-6.34,10.236-5.25,5.087-10.33,10.349-15.555,15.462a4.289,4.289,0,0,0-1.379,3.408q.063,24.562.023,49.125c0,6.574-3.358,11.588-9.088,13.637-.836.3-1.7.517-2.552.773m-53.737-9.023h50.812c3.883,0,5.544-1.676,5.545-5.606q0-31.494,0-62.988c0-3.926-1.664-5.6-5.563-5.6q-50.812,0-101.623,0c-3.835,0-5.518,1.669-5.518,5.466q0,31.569,0,63.139c0,3.942,1.629,5.587,5.538,5.587H65.373M121.287,34.13c-8.027-8.054-15.887-16-23.823-23.861-1.924-1.907-4.519-1.661-6.559.378Q65.855,35.68,40.822,60.729a11.835,11.835,0,0,0-.763.958c.466.034.713.069.96.069q25.789,0,51.579-.035a3.063,3.063,0,0,0,1.91-.876C99.968,55.46,105.378,50.025,110.8,44.6c3.473-3.471,6.947-6.94,10.484-10.474m6.56,6.8L107.028,61.76h1.455c3.006,0,6.018-.095,9.016.056a3.192,3.192,0,0,0,2.725-1.083q6.222-6.319,12.539-12.544a7.786,7.786,0,0,1,1.422-.928l-6.338-6.332m-.353,25.58a14.217,14.217,0,0,1,3.28,8.828c.2-.045.331-.032.389-.09,4.223-4.207,8.477-8.384,12.639-12.652a4.181,4.181,0,0,0,.255-5.644,47.1,47.1,0,0,0-3.5-3.507L127.494,66.509" transform="translate(0 0)" fill="#fff"/>
    <path id="Trazado_27" data-name="Trazado 27" d="M45.2,210.821H75.425v26.9H45.2Zm21.208,9.072H54.232v8.833H66.408Z" transform="translate(-27.073 -126.273)" fill="#d62e83"/>
    <rect id="Rectángulo_304" data-name="Rectángulo 304" width="16.65" height="8.829" transform="translate(18.122 122.425)" fill="#6fff90"/>
    <rect id="Rectángulo_305" data-name="Rectángulo 305" width="16.625" height="8.787" transform="translate(44.048 122.42)" fill="#6fff90"/>
    <path id="Trazado_28" data-name="Trazado 28" d="M256.072,305.268c0,2.8.019,5.492-.032,8.183a1.014,1.014,0,0,1-.711.691c-5.291.041-10.582.03-15.955.03v-8.9Z" transform="translate(-143.374 -182.843)" fill="#6fff90"/>
    <rect id="Rectángulo_306" data-name="Rectángulo 306" width="16.535" height="8.798" transform="translate(70.091 122.452)" fill="#6fff90"/>
  </g>
</svg>
