<svg xmlns="http://www.w3.org/2000/svg" xmlns:xlink="http://www.w3.org/1999/xlink" width="185.106" height="169.654" viewBox="0 0 185.106 169.654">
  <defs>
    <clipPath id="clip-path">
      <rect id="Rectángulo_316" data-name="Rectángulo 316" width="185.106" height="169.654" fill="none"/>
    </clipPath>
  </defs>
  <g id="Grupo_41" data-name="Grupo 41" transform="translate(0 -7.226)">
    <g id="Grupo_40" data-name="Grupo 40" transform="translate(0 7.226)" clip-path="url(#clip-path)">
      <path id="Trazado_85" data-name="Trazado 85" d="M185.171,165.208c-1.5,3.479-4.191,4.524-7.877,4.512-27.977-.093-55.956-.043-83.933-.076a10.319,10.319,0,0,1-4.014-.629c-2.6-1.131-3.456-3.423-3.451-6.156q.031-17.4.009-34.793v-2.438H83.554c-24.69,0-49.38-.039-74.07.041-3.853.012-6.6-1.223-7.984-4.944V68.35c.768-1.39,1.863-2.261,3.506-1.745,1.659.521,1.89,1.913,1.888,3.462Q6.862,94,6.882,117.94c0,2.235.063,2.3,2.32,2.3q37.384.005,74.768,0H85.9c0-3.554,0-6.889,0-10.223.006-5.148,2.151-7.3,7.295-7.3q11.475-.005,22.95,0h2.074V40.738H6.881V51.7c0,1.255-.029,2.511.008,3.765.044,1.507-.093,2.911-1.735,3.572C3.493,59.7,2.477,58.68,1.5,57.588V17.41c1.593-3.668,4.444-4.842,8.33-4.717,6.148.2,12.306.053,18.767.053,0-1.01-.021-1.935,0-2.858.132-4.94,3.512-8.409,8.155-8.385,4.612.023,8.016,3.584,8.1,8.478.014.834,0,1.669,0,2.634H80.412c0-1.095-.033-2.21.006-3.322a8.087,8.087,0,0,1,16.165.027c.036,1.065.005,2.131.005,3.426H99q8.788,0,17.576,0c4.676.009,7.16,2.5,7.162,7.229q.011,40.085,0,80.17v2.575h2.218c17.1,0,34.2.077,51.294-.061,3.694-.03,6.377.986,7.919,4.431v38.743c-.057.016-.142.014-.168.052-.876,1.252-2.029,1.9-3.53,1.313-1.536-.6-1.7-1.954-1.7-3.418.023-11.179-.025-22.358.052-33.536.012-1.741-.5-2.182-2.2-2.179q-42.054.075-84.109-.009c-1.874,0-2.278.553-2.272,2.328.064,17.156.038,34.313.039,51.47,0,2.426,0,2.43,2.481,2.43h83.571a6.18,6.18,0,0,1,.717,0c1.293.153,1.847-.325,1.762-1.707a24.53,24.53,0,0,1,.055-5.187,3.4,3.4,0,0,1,1.64-2.424c.849-.28,2.023.379,3.038.688.244.075.417.38.623.579ZM118.358,35.182c0-5.136-.044-10.083.026-15.029.022-1.57-.536-2.073-2.094-2.055-6.035.07-12.072.026-18.107.034-.508,0-1.017.075-1.587.12,0,1.07.014,1.965,0,2.858a8.094,8.094,0,1,1-16.188.053c-.018-.987,0-1.974,0-2.949H44.855c0,.9.01,1.72,0,2.541-.071,4.915-3.442,8.5-8.031,8.538-4.736.043-8.114-3.44-8.224-8.491-.019-.863,0-1.726,0-2.673-6.937,0-13.567.018-20.2-.015-1.368-.007-1.536.74-1.528,1.839.03,4.063.011,8.127.011,12.191v3.038ZM91.208,15.524c0-1.97.047-3.942-.014-5.91a2.694,2.694,0,1,0-5.388.022q-.077,5.73,0,11.461a2.7,2.7,0,1,0,5.4-.022c.051-1.849.011-3.7.007-5.551M33.98,15.309c0,1.851-.043,3.7.011,5.552.058,1.983,1.09,3.07,2.762,3.043a2.7,2.7,0,0,0,2.7-2.948q.083-5.551,0-11.1A2.7,2.7,0,0,0,36.759,6.9c-1.672-.026-2.708,1.062-2.768,3.036-.054,1.789-.011,3.582-.011,5.373" transform="translate(-0.783 -0.783)" fill="#fff"/>
      <path id="Trazado_86" data-name="Trazado 86" d="M185.171,165.208c-1.5,3.479-4.191,4.524-7.877,4.512-27.977-.093-55.956-.043-83.933-.076a10.319,10.319,0,0,1-4.014-.629c-2.6-1.131-3.456-3.423-3.451-6.156q.031-17.4.009-34.793v-2.438H83.554c-24.69,0-49.38-.039-74.07.041-3.853.012-6.6-1.223-7.984-4.944V68.35c.768-1.39,1.863-2.261,3.506-1.745,1.659.521,1.89,1.913,1.888,3.462Q6.862,94,6.882,117.94c0,2.235.063,2.3,2.32,2.3q37.384.005,74.768,0H85.9c0-3.554,0-6.889,0-10.223.006-5.148,2.151-7.3,7.295-7.3q11.475-.005,22.95,0h2.074V40.738H6.881V51.7c0,1.255-.029,2.511.008,3.765.044,1.507-.093,2.911-1.735,3.572C3.493,59.7,2.477,58.68,1.5,57.588V17.41c1.593-3.668,4.444-4.842,8.33-4.717,6.148.2,12.306.053,18.767.053,0-1.01-.021-1.935,0-2.858.132-4.94,3.512-8.409,8.155-8.385,4.612.023,8.016,3.584,8.1,8.478.014.834,0,1.669,0,2.634H80.412c0-1.095-.033-2.21.006-3.322a8.087,8.087,0,0,1,16.165.027c.036,1.065.005,2.131.005,3.426H99q8.788,0,17.576,0c4.676.009,7.16,2.5,7.162,7.229q.011,40.085,0,80.17v2.575h2.218c17.1,0,34.2.077,51.294-.061,3.694-.03,6.377.986,7.919,4.431v38.743c-.057.016-.142.014-.168.052-.876,1.252-2.029,1.9-3.53,1.313-1.536-.6-1.7-1.954-1.7-3.418.023-11.179-.025-22.358.052-33.536.012-1.741-.5-2.182-2.2-2.179q-42.054.075-84.109-.009c-1.874,0-2.278.553-2.272,2.328.064,17.156.038,34.313.039,51.47,0,2.426,0,2.43,2.481,2.43h83.571a6.18,6.18,0,0,1,.717,0c1.293.153,1.847-.325,1.762-1.707a24.53,24.53,0,0,1,.055-5.187,3.4,3.4,0,0,1,1.64-2.424c.849-.28,2.023.379,3.038.688.244.075.417.38.623.579ZM118.358,35.182c0-5.136-.044-10.083.026-15.029.022-1.57-.536-2.073-2.094-2.055-6.035.07-12.072.026-18.107.034-.508,0-1.017.075-1.587.12,0,1.07.014,1.965,0,2.858a8.094,8.094,0,1,1-16.188.053c-.018-.987,0-1.974,0-2.949H44.855c0,.9.01,1.72,0,2.541-.071,4.915-3.442,8.5-8.031,8.538-4.736.043-8.114-3.44-8.224-8.491-.019-.863,0-1.726,0-2.673-6.937,0-13.567.018-20.2-.015-1.368-.007-1.536.74-1.528,1.839.03,4.063.011,8.127.011,12.191v3.038ZM91.208,15.524c0-1.97.047-3.942-.014-5.91a2.694,2.694,0,1,0-5.388.022q-.077,5.73,0,11.461a2.7,2.7,0,1,0,5.4-.022C91.252,19.226,91.212,17.374,91.208,15.524ZM33.98,15.309c0,1.851-.043,3.7.011,5.552.058,1.983,1.09,3.07,2.762,3.043a2.7,2.7,0,0,0,2.7-2.948q.083-5.551,0-11.1A2.7,2.7,0,0,0,36.759,6.9c-1.672-.026-2.708,1.062-2.768,3.036C33.938,11.726,33.98,13.518,33.98,15.309Z" transform="translate(-0.783 -0.783)" fill="none" stroke="#fff" stroke-width="3"/>
      <path id="Trazado_87" data-name="Trazado 87" d="M82.314,134.14c1.478-.758,2.736-1.439,4.025-2.055,1.64-.783,3.109-.372,3.842,1.017s.256,2.866-1.368,3.74c-2.786,1.5-5.614,2.921-8.428,4.368a2.766,2.766,0,0,1-3.7-.71c-2.1-2.448-4.231-4.877-6.285-7.365a2.6,2.6,0,0,1,.223-3.832,2.656,2.656,0,0,1,3.829.367c.815.849,1.563,1.763,2.107,2.382,1.905-3.161,3.461-6.546,5.729-9.356a24.908,24.908,0,0,1,29.415-6.792,25.2,25.2,0,0,1-6.651,47.976c-9.548,1.256-17.372-2-23.48-9.4-1.467-1.777-1.457-3.309-.137-4.41,1.345-1.123,2.887-.717,4.4,1.112,5.2,6.265,11.875,8.857,19.8,7.108,8.056-1.779,13.168-6.988,15.142-15.039,2.587-10.546-4.342-21.252-15.23-23.708-10.132-2.285-21.021,4.424-23.235,14.6" transform="translate(-36.345 -59.324)" fill="#d62e83"/>
      <path id="Trazado_88" data-name="Trazado 88" d="M82.314,134.14c1.478-.758,2.736-1.439,4.025-2.055,1.64-.783,3.109-.372,3.842,1.017s.256,2.866-1.368,3.74c-2.786,1.5-5.614,2.921-8.428,4.368a2.766,2.766,0,0,1-3.7-.71c-2.1-2.448-4.231-4.877-6.285-7.365a2.6,2.6,0,0,1,.223-3.832,2.656,2.656,0,0,1,3.829.367c.815.849,1.563,1.763,2.107,2.382,1.905-3.161,3.461-6.546,5.729-9.356a24.908,24.908,0,0,1,29.415-6.792,25.2,25.2,0,0,1-6.651,47.976c-9.548,1.256-17.372-2-23.48-9.4-1.467-1.777-1.457-3.309-.137-4.41,1.345-1.123,2.887-.717,4.4,1.112,5.2,6.265,11.875,8.857,19.8,7.108,8.056-1.779,13.168-6.988,15.142-15.039,2.587-10.546-4.342-21.252-15.23-23.708C95.417,117.26,84.528,123.969,82.314,134.14Z" transform="translate(-36.345 -59.324)" fill="none" stroke="#d62e83" stroke-width="3"/>
      <path id="Trazado_89" data-name="Trazado 89" d="M213.522,258.66c-2.09,0-4.18.04-6.269-.009-3.113-.073-4.83-1.83-4.854-4.962q-.042-5.463,0-10.927c.025-3.155,1.719-4.868,4.873-4.9q6.269-.054,12.538,0c3,.031,4.763,1.793,4.807,4.82q.08,5.552,0,11.105a4.552,4.552,0,0,1-4.826,4.852c-2.088.055-4.179.011-6.269.011m-5.695-5.533h11.3v-9.742h-11.3Z" transform="translate(-105.579 -124.078)" fill="#d62e83"/>
      <path id="Trazado_90" data-name="Trazado 90" d="M213.522,258.66c-2.09,0-4.18.04-6.269-.009-3.113-.073-4.83-1.83-4.854-4.962q-.042-5.463,0-10.927c.025-3.155,1.719-4.868,4.873-4.9q6.269-.054,12.538,0c3,.031,4.763,1.793,4.807,4.82q.08,5.552,0,11.105a4.552,4.552,0,0,1-4.826,4.852C217.7,258.7,215.612,258.66,213.522,258.66Zm-5.695-5.533h11.3v-9.742h-11.3Z" transform="translate(-105.579 -124.078)" fill="none" stroke="#d62e83" stroke-width="3"/>
      <path id="Trazado_91" data-name="Trazado 91" d="M321.436,259.809a21.136,21.136,0,0,1-3.887-2.186c-2.19-1.934-4.2-4.077-6.238-6.177a5.488,5.488,0,0,1-.037-8.011q3.111-3.224,6.34-6.334a5.434,5.434,0,0,1,7.751-.094c2.261,2.128,4.464,4.326,6.581,6.6a5.315,5.315,0,0,1,.032,7.6c-2.152,2.319-4.375,4.589-6.734,6.692-.959.855-2.361,1.212-3.807,1.916m.309-18.534-6.174,6.2,5.983,5.99,6.2-6.184-6-6.006" transform="translate(-161.492 -122.82)" fill="#fff"/>
      <path id="Trazado_92" data-name="Trazado 92" d="M321.436,259.809a21.136,21.136,0,0,1-3.887-2.186c-2.19-1.934-4.2-4.077-6.238-6.177a5.488,5.488,0,0,1-.037-8.011q3.111-3.224,6.34-6.334a5.434,5.434,0,0,1,7.751-.094c2.261,2.128,4.464,4.326,6.581,6.6a5.315,5.315,0,0,1,.032,7.6c-2.152,2.319-4.375,4.589-6.734,6.692C324.284,258.748,322.882,259.105,321.436,259.809Zm.309-18.534-6.174,6.2,5.983,5.99,6.2-6.184Z" transform="translate(-161.492 -122.82)" fill="none" stroke="#fff" stroke-width="3"/>
      <path id="Trazado_93" data-name="Trazado 93" d="M259.864,312.485c-1.552,0-3.107.056-4.655-.015a2.651,2.651,0,0,1-.071-5.3c3.161-.094,6.328-.088,9.49-.009a2.677,2.677,0,0,1,2.654,2.634,2.714,2.714,0,0,1-2.761,2.7c-.119.009-.239.011-.358.011h-4.3v-.016" transform="translate(-131.781 -160.211)" fill="#fff"/>
      <path id="Trazado_94" data-name="Trazado 94" d="M259.864,312.485c-1.552,0-3.107.056-4.655-.015a2.651,2.651,0,0,1-.071-5.3c3.161-.094,6.328-.088,9.49-.009a2.677,2.677,0,0,1,2.654,2.634,2.714,2.714,0,0,1-2.761,2.7c-.119.009-.239.011-.358.011h-4.3Z" transform="translate(-131.781 -160.211)" fill="none" stroke="#fff" stroke-width="3"/>
      <path id="Trazado_95" data-name="Trazado 95" d="M216.447,312.483c-1.553,0-3.108.056-4.657-.015a2.651,2.651,0,0,1-.074-5.3q4.743-.143,9.493-.008a2.659,2.659,0,1,1-.105,5.315c-1.55.059-3.1.013-4.657.013v-.005" transform="translate(-109.126 -160.209)" fill="#fff"/>
      <path id="Trazado_96" data-name="Trazado 96" d="M216.447,312.483c-1.553,0-3.108.056-4.657-.015a2.651,2.651,0,0,1-.074-5.3q4.743-.143,9.493-.008a2.659,2.659,0,1,1-.105,5.315c-1.55.059-3.1.013-4.657.013Z" transform="translate(-109.126 -160.209)" fill="none" stroke="#fff" stroke-width="3"/>
      <path id="Trazado_97" data-name="Trazado 97" d="M303.243,312.493c-1.492,0-2.986.044-4.475-.011a2.659,2.659,0,1,1-.212-5.313q4.74-.134,9.487,0a2.628,2.628,0,0,1,2.616,2.652,2.662,2.662,0,0,1-2.761,2.675c-.119.008-.239.011-.358.011h-4.3Z" transform="translate(-154.419 -160.212)" fill="#fff"/>
      <path id="Trazado_98" data-name="Trazado 98" d="M303.243,312.493c-1.492,0-2.986.044-4.475-.011a2.659,2.659,0,1,1-.212-5.313q4.74-.134,9.487,0a2.628,2.628,0,0,1,2.616,2.652,2.662,2.662,0,0,1-2.761,2.675c-.119.008-.239.011-.358.011h-4.3Z" transform="translate(-154.419 -160.212)" fill="none" stroke="#fff" stroke-width="3"/>
    </g>
  </g>
</svg>
